# xmcd
#
# Track frame offsets:
#	150
#	11239
#	22524
#	33784
#	43598
#	55494
#	67594
#	76665
#	88124
#	98057
#	107696
#	116904
#
# Disc length: 1721 seconds
#
# Revision: 1
# Processed by: cddbd v1.5.2PL0 Copyright (c) Steve Scherf et al.
# Submitted via: audiograbber 1.83.01
#
DISCID=8406b70c
DTITLE=Porter Wagoner - Y' All Come
DYEAR=1963
DGENRE=Country
TTITLE0=Y' All Come (You All Come)
TTITLE1=I Wanna Go Home
TTITLE2=Crying My Heart Out Over You
TTITLE3=Company's Comin'
TTITLE4=Don't Let Me Cross Over
TTITLE5=Angel Band
TTITLE6=Come On In
TTITLE7=Pick Me Up Your Way Down
TTITLE8=Shutters And Boards
TTITLE9=Bad News Travels Fast
TTITLE10=There's A Rainbow In Ev'ry Teardrop
TTITLE11=Be Careful Of Stones That You Throw
EXTD=
EXTT0=
EXTT1=
EXTT2=
EXTT3=
EXTT4=
EXTT5=
EXTT6=
EXTT7=
EXTT8=
EXTT9=
EXTT10=
EXTT11=
PLAYORDER=
